<svg id="flat" height="512" viewBox="0 0 64 64" width="512" xmlns="http://www.w3.org/2000/svg"><path d="m63 24-.22.03-24.78 2.97-24.35-2.87h-.01l-4.59-.54-5.05-.59 23.23-2.79a14.971 14.971 0 0 1 3.54 0z" fill="#7070f2"/><path d="m63 33-.22.03-24.78 2.97a.78.78 0 0 1 -.22-.03c-1-.25-1.78-2.15-1.78-4.47 0-2.49.9-4.5 2-4.5l24.78-2.97c-1 .25-1.78 2.15-1.78 4.47 0 2.49.9 4.5 2 4.5z" fill="#eaeaea"/><path d="m63 42a1.1 1.1 0 0 0 -.31.04l-24.69 2.96a.78.78 0 0 1 -.22-.03c-1-.25-1.78-2.15-1.78-4.47 0-2.49.9-4.5 2-4.5l24.78-2.97c-1 .25-1.78 2.15-1.78 4.47 0 2.49.9 4.5 2 4.5z" fill="#eaeaea"/><path d="m62.78 33.03c-.64.16-1.19.99-1.5 2.18l-23.28 2.79c-.94 0-1.74 1.48-1.95 3.48-.03-.31-.05-.64-.05-.98 0-2.49.9-4.5 2-4.5z" fill="#dad4d4"/><path d="m62.78 24.03c-.64.16-1.19.99-1.5 2.18l-23.28 2.79c-.94 0-1.74 1.48-1.95 3.48-.03-.31-.05-.64-.05-.98 0-2.49.9-4.5 2-4.5z" fill="#dad4d4"/><path d="m63 56-.72.09-9.28 1.11v-8l-6 .72v8l-9 1.08-.31-.04a1.048 1.048 0 0 1 -.28-.1 1.736 1.736 0 0 1 -.26-.15.031.031 0 0 1 -.02-.01c-.07-.05-.15-.11-.22-.17a2.682 2.682 0 0 1 -.28-.3 2.493 2.493 0 0 1 -.23-.31 5.3 5.3 0 0 1 -.41-.71c-.08-.17-.15-.35-.23-.54-.05-.14-.1-.29-.15-.44a3.946 3.946 0 0 1 -.15-.52c-.05-.17-.09-.35-.13-.53a12.066 12.066 0 0 1 -.26-1.68v-.03a14.193 14.193 0 0 1 -.07-1.47c0-3.87 1.34-7 3-7l24.69-2.96a.188.188 0 0 0 -.1.04c-1.46.44-2.59 3.37-2.59 6.92 0 3.87 1.34 7 3 7z" fill="#eaeaea"/><path d="m63 56-.72.09-9.28 1.11v-3a4.58 4.58 0 0 0 4-4.633c0-.052 0-.1 0-.157v-.04a3.188 3.188 0 0 0 -3.54-3.22l-15.46 1.85a2.05 2.05 0 0 0 -1.608 1.092 5.311 5.311 0 0 0 -.15 5.577 2.481 2.481 0 0 0 1.448 1.291l.31.04 9-1.08v3l-9 1.08-.31-.04a1.048 1.048 0 0 1 -.28-.1 1.736 1.736 0 0 1 -.26-.15.031.031 0 0 1 -.02-.01c-.07-.05-.15-.11-.22-.17a2.682 2.682 0 0 1 -.28-.3 2.493 2.493 0 0 1 -.23-.31 5.3 5.3 0 0 1 -.41-.71c-.08-.17-.15-.35-.23-.54-.05-.14-.1-.29-.15-.44a3.946 3.946 0 0 1 -.15-.52c-.05-.17-.09-.35-.13-.53a12.066 12.066 0 0 1 -.26-1.68v-.03a14.193 14.193 0 0 1 -.07-1.47c0-3.87 1.34-7 3-7l24.69-2.96a.188.188 0 0 0 -.1.04c-1.46.44-2.59 3.37-2.59 6.92 0 3.87 1.34 7 3 7z" fill="#dad4d4"/><path d="m53 57.2v4.8l-3-4-3 5v-5.08-7.99l6-.73z" fill="#ed1c24"/><path d="m51 49.44v1.825a6.2 6.2 0 0 1 -3.959 5.85l-.041.015v5.87l3-5 3 4v-12.8z" fill="#c1272d"/><path d="m13.65 24.13 24.35 2.87c-1.1 0-2 2.01-2 4.5 0 2.32.78 4.22 1.78 4.47l-7.18-.84-4.4-.52-13.07-1.54a11.329 11.329 0 0 1 -.63-4.07c0-2.35.48-4.33 1.14-4.87z" fill="#5e5eea"/><path d="m37.78 35.97a.78.78 0 0 0 .22.03c-1.1 0-2 2.01-2 4.5 0 2.32.78 4.22 1.78 4.47l-6.13-.72-1.67-.19a9.955 9.955 0 0 1 -.73-4.06c0-2.37.58-4.36 1.35-4.87z" fill="#99e0d4"/><path d="m37.78 44.97a.78.78 0 0 0 .22.03c-1.66 0-3 3.13-3 7 0 3.63 1.18 6.61 2.69 6.96l-5.97-.7c-1.01-1.24-1.72-3.93-1.72-7.05 0-3.04.67-5.67 1.65-6.96z" fill="#ffca3a"/><path d="m31.72 58.26-4.04-.47c-1-1.27-1.68-3.93-1.68-7s.69-5.74 1.69-7l2.29.27 1.67.19c-.98 1.29-1.65 3.92-1.65 6.96 0 3.12.71 5.81 1.72 7.05z" fill="#f7931e"/><path d="m26.2 34.61 4.4.52c-.77.51-1.35 2.5-1.35 4.87a9.955 9.955 0 0 0 .73 4.06l-2.29-.27-1.63-.19a8.2 8.2 0 0 1 -1.06-4.6 8.349 8.349 0 0 1 1.2-4.39z" fill="#7070f2"/><path d="m26.06 43.6 1.63.19c-1 1.26-1.69 3.92-1.69 7s.68 5.73 1.68 7l-16.22-1.91a13.353 13.353 0 0 1 -1.44-6.64c0-3.36.83-6.22 1.98-7.3z" fill="#ffca3a"/><path d="m13.13 33.07 13.07 1.54a8.349 8.349 0 0 0 -1.2 4.39 8.2 8.2 0 0 0 1.06 4.6l-14.06-1.66-4.01-.47-3.99-.47c-1.1 0-2-2.01-2-4.5s.9-4.5 2-4.5l4.89.57v.01z" fill="#99e0d4"/><path d="m37.78 44.97-6.13-.72-1.67-.19a8.38 8.38 0 0 1 -.66-2.67l6.83.78c.26 1.51.88 2.61 1.63 2.8z" fill="#5bd3c7"/><path d="m29.98 44.06-2.29-.27-1.63-.19a5.772 5.772 0 0 1 -.92-2.69l4.18.48a8.38 8.38 0 0 0 .66 2.67z" fill="#5858dd"/><path d="m26.06 43.6-14.06-1.66-4.01-.47-3.99-.47c-.82 0-1.53-1.12-1.84-2.73l5.79.66 6.78.78 10.41 1.2a5.772 5.772 0 0 0 .92 2.69z" fill="#5bd3c7"/><path d="m9.05 23.59 4.59.54c-.66.54-1.14 2.52-1.14 4.87a11.329 11.329 0 0 0 .63 4.07l-4.24-.49v-.01a9.474 9.474 0 0 1 -.89-4.57 9.429 9.429 0 0 1 1.05-4.41z" fill="#99e0d4"/><path d="m7.99 41.47 4.01.47c-1.15 1.08-1.98 3.94-1.98 7.3a13.353 13.353 0 0 0 1.44 6.64l-3.99-.47a13.277 13.277 0 0 1 -1.45-6.65c0-3.35.82-6.21 1.97-7.29z" fill="#f7931e"/><path d="m4 23 5.05.59a9.429 9.429 0 0 0 -1.05 4.41 9.474 9.474 0 0 0 .89 4.57l-4.89-.57c-1.1 0-2-2.01-2-4.5s.9-4.5 2-4.5z" fill="#5e5eea"/><path d="m37.78 35.97-24.65-2.9a7.9 7.9 0 0 1 -.49-1.94l23.68 2.79c.31 1.12.84 1.9 1.46 2.05z" fill="#5b52d8"/><path d="m8.89 32.58v-.01a5.418 5.418 0 0 1 -.66-1.95l4.41.51a7.9 7.9 0 0 0 .49 1.94z" fill="#5bd3c7"/><path d="m8.89 32.57-4.89-.57c-.75 0-1.41-.94-1.75-2.33a1.131 1.131 0 0 0 .75.33l5.23.62a5.418 5.418 0 0 0 .66 1.95z" fill="#5b52d8"/><path d="m4 41 3.99.47c-1.15 1.08-1.97 3.94-1.97 7.29a13.277 13.277 0 0 0 1.45 6.65l-3.47-.41c-1.66 0-3-3.13-3-7s1.34-7 3-7z" fill="#ffca3a"/><path d="m37.69 58.96-5.97-.7a7.708 7.708 0 0 1 -1.3-3.09l.79.09 4.25.46c.47 1.78 1.29 3.02 2.23 3.24z" fill="#f7931e"/><path d="m31.72 58.26-4.04-.47a7.923 7.923 0 0 1 -1.27-3.05l.43.05 3.58.38a7.708 7.708 0 0 0 1.3 3.09z" fill="#f15a24"/><path d="m27.68 57.79-16.22-1.91a9.015 9.015 0 0 1 -1.06-2.88l16.01 1.74a7.923 7.923 0 0 0 1.27 3.05z" fill="#f7931e"/><path d="m11.46 55.88-3.99-.47a8.909 8.909 0 0 1 -1.06-2.85l2.9.32 1.09.12a9.015 9.015 0 0 0 1.06 2.88z" fill="#f15a24"/><path d="m7.47 55.41-3.47-.41c-1.02 0-1.91-1.17-2.45-2.97l3.44.38 1.42.15a8.909 8.909 0 0 0 1.06 2.85z" fill="#f7931e"/><path d="m45.719 51.08a1 1 0 0 1 -.115-1.993l8.787-1.061a1 1 0 0 1 .237 1.987l-8.791 1.06a.945.945 0 0 1 -.118.007z" fill="#dad4d4"/></svg>